<svg xmlns="http://www.w3.org/2000/svg">
    <symbol id="svg_access" viewBox="0 0 448 512">
        <path d="M423.9 255.8L411 413.1c-3.3 40.7-63.9 35.1-60.6-4.9l10-122.5-41.1 2.3c10.1 20.7 15.8 43.9 15.8 68.5 0 41.2-16.1 78.7-42.3 106.5l-39.3-39.3c57.9-63.7 13.1-167.2-74-167.2-25.9 0-49.5 9.9-67.2 26L73 243.2c22-20.7 50.1-35.1 81.4-40.2l75.3-85.7-42.6-24.8-51.6 46c-30 26.8-70.6-18.5-40.5-45.4l68-60.7c9.8-8.8 24.1-10.2 35.5-3.6 0 0 139.3 80.9 139.5 81.1 16.2 10.1 20.7 36 6.1 52.6L285.7 229l106.1-5.9c18.5-1.1 33.6 14.4 32.1 32.7zm-64.9-154c28.1 0 50.9-22.8 50.9-50.9C409.9 22.8 387.1 0 359 0c-28.1 0-50.9 22.8-50.9 50.9 0 28.1 22.8 50.9 50.9 50.9zM179.6 456.5c-80.6 0-127.4-90.6-82.7-156.1l-39.7-39.7C36.4 287 24 320.3 24 356.4c0 130.7 150.7 201.4 251.4 122.5l-39.7-39.7c-16 10.9-35.3 17.3-56.1 17.3z"/>
    </symbol>
    <symbol id="svg_home" viewBox="0 0 576 512">
        <path d="M488 312.7V456c0 13.3-10.7 24-24 24H348c-6.6 0-12-5.4-12-12V356c0-6.6-5.4-12-12-12h-72c-6.6 0-12 5.4-12 12v112c0 6.6-5.4 12-12 12H112c-13.3 0-24-10.7-24-24V312.7c0-3.6 1.6-7 4.4-9.3l188-154.8c4.4-3.6 10.8-3.6 15.3 0l188 154.8c2.7 2.3 4.3 5.7 4.3 9.3zm83.6-60.9L488 182.9V44.4c0-6.6-5.4-12-12-12h-56c-6.6 0-12 5.4-12 12V117l-89.5-73.7c-17.7-14.6-43.3-14.6-61 0L4.4 251.8c-5.1 4.2-5.8 11.8-1.6 16.9l25.5 31c4.2 5.1 11.8 5.8 16.9 1.6l235.2-193.7c4.4-3.6 10.8-3.6 15.3 0l235.2 193.7c5.1 4.2 12.7 3.5 16.9-1.6l25.5-31c4.2-5.2 3.4-12.7-1.7-16.9z"/>
    </symbol>
    <symbol id="svg_logo" viewBox="0 0 448 512">
        <path d="M448 294.2v-76.4c0-13.3-10.7-24-24-24H286.2V56c0-13.3-10.7-24-24-24h-76.4c-13.3 0-24 10.7-24 24v137.8H24c-13.3 0-24 10.7-24 24v76.4c0 13.3 10.7 24 24 24h137.8V456c0 13.3 10.7 24 24 24h76.4c13.3 0 24-10.7 24-24V318.2H424c13.3 0 24-10.7 24-24z"/>
    </symbol>
    <symbol id="svg_signIn" viewBox="0 0 512 512">
        <path d="M416 448h-84c-6.6 0-12-5.4-12-12v-40c0-6.6 5.4-12 12-12h84c17.7 0 32-14.3 32-32V160c0-17.7-14.3-32-32-32h-84c-6.6 0-12-5.4-12-12V76c0-6.6 5.4-12 12-12h84c53 0 96 43 96 96v192c0 53-43 96-96 96zm-47-201L201 79c-15-15-41-4.5-41 17v96H24c-13.3 0-24 10.7-24 24v96c0 13.3 10.7 24 24 24h136v96c0 21.5 26 32 41 17l168-168c9.3-9.4 9.3-24.6 0-34z"/>
    </symbol>
    <symbol id="svg_users"  viewBox="0 0 640 512">
        <path d="M320 64c57.99 0 105 47.01 105 105s-47.01 105-105 105-105-47.01-105-105S262.01 64 320 64zm113.463 217.366l-39.982-9.996c-49.168 35.365-108.766 27.473-146.961 0l-39.982 9.996C174.485 289.379 152 318.177 152 351.216V412c0 19.882 16.118 36 36 36h264c19.882 0 36-16.118 36-36v-60.784c0-33.039-22.485-61.837-54.537-69.85zM528 300c38.66 0 70-31.34 70-70s-31.34-70-70-70-70 31.34-70 70 31.34 70 70 70zm-416 0c38.66 0 70-31.34 70-70s-31.34-70-70-70-70 31.34-70 70 31.34 70 70 70zm24 112v-60.784c0-16.551 4.593-32.204 12.703-45.599-29.988 14.72-63.336 8.708-85.69-7.37l-26.655 6.664C14.99 310.252 0 329.452 0 351.477V392c0 13.255 10.745 24 24 24h112.169a52.417 52.417 0 0 1-.169-4zm467.642-107.09l-26.655-6.664c-27.925 20.086-60.89 19.233-85.786 7.218C499.369 318.893 504 334.601 504 351.216V412c0 1.347-.068 2.678-.169 4H616c13.255 0 24-10.745 24-24v-40.523c0-22.025-14.99-41.225-36.358-46.567z"/>
    </symbol>
</svg>