<?xml version="1.0" standalone="no"?>
<!DOCTYPE svg PUBLIC "-//W3C//DTD SVG 20010904//EN"
 "http://www.w3.org/TR/2001/REC-SVG-20010904/DTD/svg10.dtd">
<svg version="1.0" xmlns="http://www.w3.org/2000/svg"
 width="1024.000000pt" height="1024.000000pt" viewBox="0 0 1024.000000 1024.000000"
 preserveAspectRatio="xMidYMid meet">
<metadata>
Created by potrace 1.11, written by Peter Selinger 2001-2013
</metadata>
<g transform="translate(0.000000,1024.000000) scale(0.100000,-0.100000)"
fill="#000000" stroke="none">
<path d="M4296 9602 c-3 -5 -23 -12 -44 -16 -48 -7 -142 -46 -142 -57 0 -5 -7
-9 -15 -9 -26 0 -134 -119 -166 -182 -31 -60 -34 -71 -45 -138 -3 -19 -7 -665
-7 -1435 l-2 -1400 -1400 -1 c-770 -1 -1411 -4 -1425 -7 -14 -3 -42 -8 -63
-12 -20 -4 -37 -10 -37 -14 0 -4 -9 -7 -20 -8 -12 -1 -50 -23 -86 -48 -66 -48
-127 -120 -159 -190 -45 -96 -45 -106 -42 -995 l2 -845 22 -54 c12 -30 35 -72
50 -95 26 -37 133 -152 133 -142 0 2 21 -7 48 -21 111 -59 19 -56 1562 -57
l1415 -1 0 -1412 c0 -777 3 -1413 7 -1413 4 0 6 -13 6 -30 -2 -51 69 -179 133
-241 53 -51 142 -107 179 -112 8 -2 20 -5 25 -9 26 -16 293 -27 316 -13 5 4 9
2 9 -3 0 -5 20 -6 45 -2 25 4 45 3 45 -2 0 -5 4 -7 8 -4 10 6 70 8 140 4 28
-2 52 0 52 3 0 4 18 3 40 -1 22 -4 42 -5 44 -2 7 6 106 8 106 2 0 -6 140 -2
157 4 7 3 13 2 13 -3 0 -5 18 -5 40 -1 22 4 40 4 40 0 0 -4 18 -4 40 0 22 4
40 4 40 0 0 -4 18 -4 40 0 22 4 40 4 40 0 0 -4 18 -4 40 0 22 4 40 4 40 0 0
-4 18 -4 40 0 22 4 40 4 40 0 0 -4 18 -4 40 0 22 4 40 4 40 0 0 -4 17 -4 38
-1 20 4 46 6 57 5 82 -8 216 0 243 15 9 5 20 9 25 10 31 3 131 66 177 111 48
48 69 81 121 191 20 43 23 211 23 1509 l1 1395 1405 1 c1458 0 1463 0 1539 40
14 8 31 14 37 14 6 0 19 9 29 20 10 11 20 18 23 16 2 -3 30 21 62 53 52 54 98
129 116 191 4 14 10 32 13 40 11 32 11 1684 0 1730 -6 25 -12 50 -13 55 -10
57 -101 180 -179 242 -36 28 -122 64 -192 79 -16 3 -662 7 -1435 7 l-1405 2
-2 1400 c-1 770 -4 1416 -6 1435 -12 103 -94 233 -199 315 -54 43 -180 82
-260 81 -27 -1 -48 1 -48 4 0 6 -140 2 -157 -4 -7 -3 -13 -2 -13 3 0 5 -18 5
-40 1 -22 -4 -40 -4 -40 0 0 4 -18 4 -40 0 -22 -4 -40 -4 -40 0 0 4 -18 4 -40
0 -22 -4 -40 -4 -40 0 0 4 -18 4 -40 0 -22 -4 -40 -4 -40 0 0 4 -18 4 -40 0
-22 -4 -40 -4 -40 0 0 4 -18 4 -40 0 -23 -4 -40 -3 -40 2 0 5 -4 7 -10 3 -8
-5 -59 -6 -165 -5 -11 1 -44 0 -73 0 -29 0 -57 2 -62 5 -6 3 -10 2 -10 -3 0
-5 -19 -6 -42 -3 -24 4 -59 4 -79 1 -20 -4 -44 -3 -55 0 -10 4 -31 4 -45 0
-15 -4 -32 -4 -39 0 -7 4 -25 4 -40 0 -15 -4 -33 -4 -40 0 -7 4 -24 4 -39 1
-14 -4 -43 -4 -63 -1 -21 4 -38 5 -38 1 0 -9 -84 -7 -91 3 -4 4 -9 4 -13 -2z"/>
</g>
</svg>
