<svg xmlns="http://www.w3.org/2000/svg"
     >

    <symbol id="svg_lyft" viewBox="0 0 512 512">
        <path d="M0 81.1h77.8v208.7c0 33.1 15 52.8 27.2 61-12.7 11.1-51.2 20.9-80.2-2.8C7.8 334 0 310.7 0 289V81.1zm485.9 173.5v-22h23.8v-76.8h-26.1c-10.1-46.3-51.2-80.7-100.3-80.7-56.6 0-102.7 46-102.7 102.7V357c16 2.3 35.4-.3 51.7-14 17.1-14 24.8-37.2 24.8-59v-6.7h38.8v-76.8h-38.8v-23.3c0-34.6 52.2-34.6 52.2 0v77.1c0 56.6 46 102.7 102.7 102.7v-76.5c-14.5 0-26.1-11.7-26.1-25.9zm-294.3-99v113c0 15.4-23.8 15.4-23.8 0v-113H91v132.7c0 23.8 8 54 45 63.9 37 9.8 58.2-10.6 58.2-10.6-2.1 13.4-14.5 23.3-34.9 25.3-15.5 1.6-35.2-3.6-45-7.8v70.3c25.1 7.5 51.5 9.8 77.6 4.7 47.1-9.1 76.8-48.4 76.8-100.8V155.1h-77.1v.5z"/>
    </symbol>
    <symbol id="svg_audible" viewBox="0 0 640 512">
        <path d="M640 199.9v54l-320 200L0 254v-54l320 200 320-200.1zm-194.5 72l47.1-29.4c-37.2-55.8-100.7-92.6-172.7-92.6-72 0-135.5 36.7-172.6 92.4h.3c2.5-2.3 5.1-4.5 7.7-6.7 89.7-74.4 219.4-58.1 290.2 36.3zm-220.1 18.8c16.9-11.9 36.5-18.7 57.4-18.7 34.4 0 65.2 18.4 86.4 47.6l45.4-28.4c-20.9-29.9-55.6-49.5-94.8-49.5-38.9 0-73.4 19.4-94.4 49zM103.6 161.1c131.8-104.3 318.2-76.4 417.5 62.1l.7 1 48.8-30.4C517.1 112.1 424.8 58.1 319.9 58.1c-103.5 0-196.6 53.5-250.5 135.6 9.9-10.5 22.7-23.5 34.2-32.6zm467 32.7z"/>
    </symbol>
    <symbol id="svg_bullseye" viewBox="0 0 512 512">
        <path d="M256 72c101.689 0 184 82.295 184 184 0 101.689-82.295 184-184 184-101.689 0-184-82.295-184-184 0-101.689 82.295-184 184-184m0-64C119.033 8 8 119.033 8 256s111.033 248 248 248 248-111.033 248-248S392.967 8 256 8zm0 184c35.29 0 64 28.71 64 64s-28.71 64-64 64-64-28.71-64-64 28.71-64 64-64m0-64c-70.692 0-128 57.308-128 128s57.308 128 128 128 128-57.308 128-128-57.308-128-128-128z"/>
    </symbol>
    <symbol id="svg_cloudsmith" viewBox="0 0 512 512">
        <path d="M332.5 419.9c0 46.4-37.6 84.1-84 84.1s-84-37.7-84-84.1 37.6-84 84-84 84 37.6 84 84zm-84-243.9c46.4 0 80-37.6 80-84s-33.6-84-80-84-88 37.6-88 84-29.6 76-76 76-84 41.6-84 88 37.6 80 84 80 84-33.6 84-80 33.6-80 80-80z"/>
    </symbol>
    <symbol id="svg_coffee" viewBox="0 0 640 512">
        <path d="M192 384h192c53 0 96-43 96-96h32c70.6 0 128-57.4 128-128S582.6 32 512 32H120c-13.3 0-24 10.7-24 24v232c0 53 43 96 96 96zM512 96c35.3 0 64 28.7 64 64s-28.7 64-64 64h-32V96h32zm47.7 384H48.3c-47.6 0-61-64-36-64h583.3c25 0 11.8 64-35.9 64z"/>
    </symbol>
    <symbol id="svg_compass" viewBox="0 0 512 512">
        <path d="M504 256c0 136.967-111.033 248-248 248S8 392.967 8 256 119.033 8 256 8s248 111.033 248 248zM307.446 120.844l-102.642 97.779a23.997 23.997 0 0 0-6.772 11.729l-33.359 137.779c-5.68 23.459 22.777 39.318 39.88 23.024l102.64-97.779a23.99 23.99 0 0 0 6.772-11.729l33.359-137.779c5.618-23.198-22.591-39.493-39.878-23.024zM256 224c-17.673 0-32 14.327-32 32s14.327 32 32 32 32-14.327 32-32-14.327-32-32-32z"/>
    </symbol>
    <symbol id="svg_crosshairs" viewBox="0 0 512 512">
        <path d="M500 224h-30.364C455.724 130.325 381.675 56.276 288 42.364V12c0-6.627-5.373-12-12-12h-40c-6.627 0-12 5.373-12 12v30.364C130.325 56.276 56.276 130.325 42.364 224H12c-6.627 0-12 5.373-12 12v40c0 6.627 5.373 12 12 12h30.364C56.276 381.675 130.325 455.724 224 469.636V500c0 6.627 5.373 12 12 12h40c6.627 0 12-5.373 12-12v-30.364C381.675 455.724 455.724 381.675 469.636 288H500c6.627 0 12-5.373 12-12v-40c0-6.627-5.373-12-12-12zM288 404.634V364c0-6.627-5.373-12-12-12h-40c-6.627 0-12 5.373-12 12v40.634C165.826 392.232 119.783 346.243 107.366 288H148c6.627 0 12-5.373 12-12v-40c0-6.627-5.373-12-12-12h-40.634C119.768 165.826 165.757 119.783 224 107.366V148c0 6.627 5.373 12 12 12h40c6.627 0 12-5.373 12-12v-40.634C346.174 119.768 392.217 165.757 404.634 224H364c-6.627 0-12 5.373-12 12v40c0 6.627 5.373 12 12 12h40.634C392.232 346.174 346.243 392.217 288 404.634zM288 256c0 17.673-14.327 32-32 32s-32-14.327-32-32c0-17.673 14.327-32 32-32s32 14.327 32 32z"/>
    </symbol>
    <symbol id="svg_earlybirds" viewBox="0 0 512 512">
        <path d="M313.2 47.5c1.2-13 21.3-14 36.6-8.7.9.3 26.2 9.7 19 15.2-27.9-7.4-56.4 18.2-55.6-6.5zm-201 6.9c30.7-8.1 62 20 61.1-7.1-1.3-14.2-23.4-15.3-40.2-9.6-1 .3-28.7 10.5-20.9 16.7zM319.4 160c-8.8 0-16 7.2-16 16s7.2 16 16 16 16-7.2 16-16-7.2-16-16-16zm-159.7 0c-8.8 0-16 7.2-16 16s7.2 16 16 16 16-7.2 16-16-7.2-16-16-16zm318.5 163.2c-9.9 24-40.7 11-63.9-1.2-13.5 69.1-58.1 111.4-126.3 124.2.3.9-2-.1 24 1 33.6 1.4 63.8-3.1 97.4-8-19.8-13.8-11.4-37.1-9.8-38.1 1.4-.9 14.7 1.7 21.6 11.5 8.6-12.5 28.4-14.8 30.2-13.6 1.6 1.1 6.6 20.9-6.9 34.6 4.7-.9 8.2-1.6 9.8-2.1 2.6-.8 17.7 11.3 3.1 13.3-14.3 2.3-22.6 5.1-47.1 10.8-45.9 10.7-85.9 11.8-117.7 12.8l1 11.6c3.8 18.1-23.4 24.3-27.6 6.2.8 17.9-27.1 21.8-28.4-1l-.5 5.3c-.7 18.4-28.4 17.9-28.3-.6-7.5 13.5-28.1 6.8-26.4-8.5l1.2-12.4c-36.7.9-59.7 3.1-61.8 3.1-20.9 0-20.9-31.6 0-31.6 2.4 0 27.7 1.3 63.2 2.8-61.1-15.5-103.7-55-114.9-118.2-25 12.8-57.5 26.8-68.2.8-10.5-25.4 21.5-42.6 66.8-73.4.7-6.6 1.6-13.3 2.7-19.8-14.4-19.6-11.6-36.3-16.1-60.4-16.8 2.4-23.2-9.1-23.6-23.1.3-7.3 2.1-14.9 2.4-15.4 1.1-1.8 10.1-2 12.7-2.6 6-31.7 50.6-33.2 90.9-34.5 19.7-21.8 45.2-41.5 80.9-48.3C203.3 29 215.2 8.5 216.2 8c1.7-.8 21.2 4.3 26.3 23.2 5.2-8.8 18.3-11.4 19.6-10.7 1.1.6 6.4 15-4.9 25.9 40.3 3.5 72.2 24.7 96 50.7 36.1 1.5 71.8 5.9 77.1 34 2.7.6 11.6.8 12.7 2.6.3.5 2.1 8.1 2.4 15.4-.5 13.9-6.8 25.4-23.6 23.1-3.2 17.3-2.7 32.9-8.7 47.7 2.4 11.7 4 23.8 4.8 36.4 37 25.4 70.3 42.5 60.3 66.9zM207.4 159.9c.9-44-37.9-42.2-78.6-40.3-21.7 1-38.9 1.9-45.5 13.9-11.4 20.9 5.9 92.9 23.2 101.2 9.8 4.7 73.4 7.9 86.3-7.1 8.2-9.4 15-49.4 14.6-67.7zm52 58.3c-4.3-12.4-6-30.1-15.3-32.7-2-.5-9-.5-11 0-10 2.8-10.8 22.1-17 37.2 15.4 0 19.3 9.7 23.7 9.7 4.3 0 6.3-11.3 19.6-14.2zm135.7-84.7c-6.6-12.1-24.8-12.9-46.5-13.9-40.2-1.9-78.2-3.8-77.3 40.3-.5 18.3 5 58.3 13.2 67.8 13 14.9 76.6 11.8 86.3 7.1 15.8-7.6 36.5-78.9 24.3-101.3z"/>
    </symbol>
    <symbol id="svg_soundcloud" viewBox="0 0 640 512">
        <path d="M111.4 256.3l5.8 65-5.8 68.3c-.3 2.5-2.2 4.4-4.4 4.4s-4.2-1.9-4.2-4.4l-5.6-68.3 5.6-65c0-2.2 1.9-4.2 4.2-4.2 2.2 0 4.1 2 4.4 4.2zm21.4-45.6c-2.8 0-4.7 2.2-5 5l-5 105.6 5 68.3c.3 2.8 2.2 5 5 5 2.5 0 4.7-2.2 4.7-5l5.8-68.3-5.8-105.6c0-2.8-2.2-5-4.7-5zm25.5-24.1c-3.1 0-5.3 2.2-5.6 5.3l-4.4 130 4.4 67.8c.3 3.1 2.5 5.3 5.6 5.3 2.8 0 5.3-2.2 5.3-5.3l5.3-67.8-5.3-130c0-3.1-2.5-5.3-5.3-5.3zM7.2 283.2c-1.4 0-2.2 1.1-2.5 2.5L0 321.3l4.7 35c.3 1.4 1.1 2.5 2.5 2.5s2.2-1.1 2.5-2.5l5.6-35-5.6-35.6c-.3-1.4-1.1-2.5-2.5-2.5zm23.6-21.9c-1.4 0-2.5 1.1-2.5 2.5l-6.4 57.5 6.4 56.1c0 1.7 1.1 2.8 2.5 2.8s2.5-1.1 2.8-2.5l7.2-56.4-7.2-57.5c-.3-1.4-1.4-2.5-2.8-2.5zm25.3-11.4c-1.7 0-3.1 1.4-3.3 3.3L47 321.3l5.8 65.8c.3 1.7 1.7 3.1 3.3 3.1 1.7 0 3.1-1.4 3.1-3.1l6.9-65.8-6.9-68.1c0-1.9-1.4-3.3-3.1-3.3zm25.3-2.2c-1.9 0-3.6 1.4-3.6 3.6l-5.8 70 5.8 67.8c0 2.2 1.7 3.6 3.6 3.6s3.6-1.4 3.9-3.6l6.4-67.8-6.4-70c-.3-2.2-2-3.6-3.9-3.6zm241.4-110.9c-1.1-.8-2.8-1.4-4.2-1.4-2.2 0-4.2.8-5.6 1.9-1.9 1.7-3.1 4.2-3.3 6.7v.8l-3.3 176.7 1.7 32.5 1.7 31.7c.3 4.7 4.2 8.6 8.9 8.6s8.6-3.9 8.6-8.6l3.9-64.2-3.9-177.5c-.4-3-2-5.8-4.5-7.2zm-26.7 15.3c-1.4-.8-2.8-1.4-4.4-1.4s-3.1.6-4.4 1.4c-2.2 1.4-3.6 3.9-3.6 6.7l-.3 1.7-2.8 160.8s0 .3 3.1 65.6v.3c0 1.7.6 3.3 1.7 4.7 1.7 1.9 3.9 3.1 6.4 3.1 2.2 0 4.2-1.1 5.6-2.5 1.7-1.4 2.5-3.3 2.5-5.6l.3-6.7 3.1-58.6-3.3-162.8c-.3-2.8-1.7-5.3-3.9-6.7zm-111.4 22.5c-3.1 0-5.8 2.8-5.8 6.1l-4.4 140.6 4.4 67.2c.3 3.3 2.8 5.8 5.8 5.8 3.3 0 5.8-2.5 6.1-5.8l5-67.2-5-140.6c-.2-3.3-2.7-6.1-6.1-6.1zm376.7 62.8c-10.8 0-21.1 2.2-30.6 6.1-6.4-70.8-65.8-126.4-138.3-126.4-17.8 0-35 3.3-50.3 9.4-6.1 2.2-7.8 4.4-7.8 9.2v249.7c0 5 3.9 8.6 8.6 9.2h218.3c43.3 0 78.6-35 78.6-78.3.1-43.6-35.2-78.9-78.5-78.9zm-296.7-60.3c-4.2 0-7.5 3.3-7.8 7.8l-3.3 136.7 3.3 65.6c.3 4.2 3.6 7.5 7.8 7.5 4.2 0 7.5-3.3 7.5-7.5l3.9-65.6-3.9-136.7c-.3-4.5-3.3-7.8-7.5-7.8zm-53.6-7.8c-3.3 0-6.4 3.1-6.4 6.7l-3.9 145.3 3.9 66.9c.3 3.6 3.1 6.4 6.4 6.4 3.6 0 6.4-2.8 6.7-6.4l4.4-66.9-4.4-145.3c-.3-3.6-3.1-6.7-6.7-6.7zm26.7 3.4c-3.9 0-6.9 3.1-6.9 6.9L227 321.3l3.9 66.4c.3 3.9 3.1 6.9 6.9 6.9s6.9-3.1 6.9-6.9l4.2-66.4-4.2-141.7c0-3.9-3-6.9-6.9-6.9z"/>
    </symbol>
    <symbol id="svg_subscript" viewBox="0 0 512 512">
        <path d="M395.198 416c3.461-10.526 18.796-21.28 36.265-32.425 16.625-10.605 35.467-22.626 50.341-38.862 17.458-19.054 25.944-40.175 25.944-64.567 0-60.562-50.702-88.146-97.81-88.146-42.491 0-76.378 22.016-94.432 50.447-4.654 7.329-2.592 17.036 4.623 21.865l30.328 20.296c7.032 4.706 16.46 3.084 21.63-3.614 8.022-10.394 18.818-18.225 31.667-18.225 19.387 0 26.266 12.901 26.266 23.948 0 36.159-119.437 57.023-119.437 160.024 0 6.654.561 13.014 1.415 19.331 1.076 7.964 7.834 13.928 15.87 13.928H496c8.837 0 16-7.163 16-16v-32c0-8.837-7.163-16-16-16H395.198zM272 256c8.837 0 16 7.163 16 16v32c0 8.837-7.163 16-16 16h-62.399a16 16 0 0 1-13.541-7.478l-45.701-72.615c-2.297-3.352-4.422-6.969-6.195-10.209-1.65 3.244-3.647 6.937-5.874 10.582l-44.712 72.147a15.999 15.999 0 0 1-13.6 7.572H16c-8.837 0-16-7.163-16-16v-32c0-8.837 7.163-16 16-16h26.325l56.552-82.709L46.111 96H16C7.163 96 0 88.837 0 80V48c0-8.837 7.163-16 16-16h68.806a16 16 0 0 1 13.645 7.644l39.882 65.126c2.072 3.523 4.053 7.171 5.727 10.37 1.777-3.244 3.92-6.954 6.237-10.537l40.332-65.035A15.999 15.999 0 0 1 204.226 32H272c8.837 0 16 7.163 16 16v32c0 8.837-7.163 16-16 16h-27.979l-52.69 75.671L249.974 256H272z"/>
    </symbol>
</svg>